<svg xmlns="http://www.w3.org/2000/svg" viewBox="0 0 762 762" fill="none" shape-rendering="auto" width="200" height="200"><metadata xmlns:rdf="http://www.w3.org/1999/02/22-rdf-syntax-ns#" xmlns:xsi="http://www.w3.org/2001/XMLSchema-instance" xmlns:dc="http://purl.org/dc/elements/1.1/" xmlns:dcterms="http://purl.org/dc/terms/"><rdf:RDF><rdf:Description><dc:title>Adventurer</dc:title><dc:creator>Lisa Wischofsky</dc:creator><dc:source xsi:type="dcterms:URI">https://www.figma.com/community/file/1184595184137881796</dc:source><dcterms:license xsi:type="dcterms:URI">https://creativecommons.org/licenses/by/4.0/</dcterms:license><dc:rights>Remix of „Adventurer” (https://www.figma.com/community/file/1184595184137881796) by „Lisa Wischofsky”, licensed under „CC BY 4.0” (https://creativecommons.org/licenses/by/4.0/)</dc:rights></rdf:Description></rdf:RDF></metadata><mask id="viewboxMask"><rect width="762" height="762" rx="0" ry="0" x="0" y="0" fill="#fff" /></mask><g mask="url(#viewboxMask)"><path d="M396 164.8a224.8 224.8 0 0 1 104.8 42.4c6.2 4.9 12.5 9.4 18 15a225.4 225.4 0 0 1 71.8 149 58.5 58.5 0 0 1 50.9 42.2 71 71 0 0 1-27.6 76.5c-11 7.7-24.5 12-38 11.7-5 0-10-1.6-15-1.8-1.9 2.2-3.3 4.9-4.8 7.3A223.3 223.3 0 0 1 389 609.8c-11 .7-21.9 2-33 .7a223.7 223.7 0 0 1-178.8-342.3A223.4 223.4 0 0 1 352 163.5c14.6-1.4 29.4-.3 44 1.3Z" fill="#000"/><path fill-rule="evenodd" clip-rule="evenodd" d="M498.8 213.2A216 216 0 0 0 363 169c-13-.2-26.2 1.6-39 4a218 218 0 0 0-113.6 365.5 218.5 218.5 0 0 0 260.4 40.2c35-18.8 64.2-47.3 84.4-81.5l-3-1.6c-2.8-1.4-5.7-3-8-5-2.2-2-.3-5.8 2.7-4.7 1.5.7 3 1.6 4.4 2.4a55 55 0 0 0 59.6-3.6 64.5 64.5 0 0 0 25-69.8 53.1 53.1 0 0 0-24-31 52.6 52.6 0 0 0-47-2.8c-1.6.8-3.4 1.5-5 1.3-2.5-.2-2.8-4.2-.6-5.2 8-4 16.5-5.6 25.4-6.4a217 217 0 0 0-72-146.4c-4.4-4-8.7-8.1-13.9-11.3Zm107.6 196.2c2-1.2 1.3-5.1-1.4-5-2 0-4.2.8-6.2 1.6l-1.4.4a95.1 95.1 0 0 0-25.5 12.4c-2.2 2-2.2 4.4.1 6.2a92 92 0 0 0 5.2 2.8 36 36 0 0 1 13 9.2c-.2 1.9-2 3.4-3.4 4.5l-.2.2c-3.9 3-8.8 5-13.6 7-2.5 1-4.9 2-7.1 3.1-1.7.8-2.6 2.2-1.6 3.9 1 2 3.2 1.1 5 .5l.6-.2 5.4-2.3c5.4-2.3 11-4.5 15.4-8 2.7-2.1 5.1-5.1 5.4-8.7-.5-3.4-2.7-5.7-5.3-7.8a83 83 0 0 0-11.6-7.2l-1.1-.6c5.4-3 10.8-5.6 16.6-7.7l5-1.7a52 52 0 0 0 6.7-2.6Z" fill="#9e5622"/><g transform="translate(-161 -83)"><path d="M619.4 468.6c3.8 2.6 8 5.3 11.1 8.9.3 1.6.1 3.4 0 5-1.9.7-3.3 1.1-5.3.3a142.2 142.2 0 0 0-91.4 0c-12.5 4.2-25 10.3-35.2 18.8-1.4 1-4 2.9-5.3 1.1-1.8-1.6-.7-3.5.1-5.2a80.6 80.6 0 0 1 30.7-30.4 94.1 94.1 0 0 1 95.3 1.5ZM405.5 480.4a56.6 56.6 0 0 1 31.2 18c2.8 3.8 6.5 8 5.9 13.1-1.6 0-3.3.7-4.6-.5a50.8 50.8 0 0 0-13.9-8 99.8 99.8 0 0 0-48.6-5.1 75 75 0 0 0-36 13.7c-1.9 1.2-3.1 2.8-5.6 1.8-1.2-1.9-1-4.5.3-6.2 16-21.8 45-31.8 71.3-26.8Z" fill="#000"/></g><g transform="translate(-161 -83)"><path d="M452 395.9c.7 4.6-1.5 9.3-4.2 13a43.8 43.8 0 0 1-12.8 11c-7.7 4.4-16 7.8-24.2 10.9a423.5 423.5 0 0 1-73.5 19.5c-3.4.5-7 1.5-10.4 1-2-.8-2-2.7-1.1-4.4 2.3-1.8 5.5-2.8 8.2-4 36-14.6 71.9-29.4 107.8-44.1 3.3-1.3 6.6-3.4 10.2-3ZM479 396l148 22.8c2.6.4 5.3.5 7.8 1.4 2.4 1.1 1.7 5-1 5.2-9.6 1-19.1 1.8-28.8 2-15.4 0-30.6.3-46-1.2-20.9-1.6-42.2-4.6-62.2-11-7-2.5-15-5.5-20.3-10.7-1.8-2-4-4.3-3.2-7.1 1.2-2.2 3.6-1.6 5.7-1.4Z" fill="#000"/></g><g transform="translate(-161 -83)"><path d="M519 572.7c12.3.2 24.5 2 36 6.5a92.6 92.6 0 0 1 43.8 35c1.2 1.5.8 3.5 1 5.4-7.3.5-14.5 0-21.7.7.1 7.4 0 14.4-3.8 21-2.1 3.8-5.6 7.2-10.3 7.2-4.5 0-8.2-3.5-10.4-7.1a44.2 44.2 0 0 1-4.4-21c-25.4 0-50.8.2-76.2.4-7.4-.3-14.6.6-22 .4-7.5-.2-14.2.8-21.5-.8 0-1.6-.5-4 .6-5.3a123.3 123.3 0 0 1 88.9-42.4Z" fill="#000"/><path d="M509 579.5c7-.6 14-.5 21 0a89 89 0 0 1 48.7 20.8c-11.3.4-22.5.6-33.7.6-31 1.1-62 .8-93 1.8 6.2-4.2 12.2-8.4 18.9-11.7 11.9-6 24.8-10 38-11.5Z" fill="#8F2E45"/><path d="M569 606.4c5.2 0 10.6-.6 15.7 0 2.4 2 4.3 4.8 6.3 7.1-5.9.6-11.9 0-17.7.8-1.2 7.1-.3 16.6-3.6 23.4-1.2 2.7-3.3 4-5.7 5.6-2.3-1.6-4.5-3-5.7-5.6-3.4-6.8-3.3-15.7-4-23.2-5.8-.5-11.5 0-17.3-.1-32.8.2-65.6.2-98.4.5 2.2-2 4.6-5.6 7.5-6.2 18-.8 36-.3 54-1.1 11-.5 22-.1 33-.6 12-.3 24-.1 36-.6Z" fill="#6FA942"/></g><g transform="translate(-161 -83)"></g><g transform="translate(-161 -83)"></g><g transform="translate(-161 -83)"><path d="M464 199.3c14.7-1 29.4 2.8 42.6 9.1a66.2 66.2 0 0 1 33.3 32.7c1 2.6 1.2 5-.7 7.1-1.5.7-3.5.6-5 1-3 1-5.3 3.4-6.5 6.3-2.8 6.3-3.9 13.4-6.1 20-2.2 7-5.2 13.5-10.2 19A98.5 98.5 0 0 1 462 323a84.4 84.4 0 0 1-45-1c-7.7-2.3-14.1-7.4-18.4-14.1-.8-1.3-.2-3.5 1.6-3.6 4.5-.4 8.8-.5 13-2.4 5.8-2.3 9-7.8 10-13.8 1.1-8.4-.5-15.9-1.4-24.2a95.3 95.3 0 0 1-.4-32.2c1.6-7.5 5.1-14.4 10.7-19.7a49.6 49.6 0 0 1 31.9-12.8Z" fill="#000"/><path d="M462 205.2c13.3-1.4 27.3 2 39.5 7.3 14.3 6.6 27 16 33.6 30.7a17.1 17.1 0 0 0-12.5 10.3c-4.3 9.9-5.4 21.1-11.1 31a62.5 62.5 0 0 1-16.3 16.7 92.4 92.4 0 0 1-60.7 18.5c-9.8-1.2-20-2.6-27.1-10a39 39 0 0 0 10.7-3.6c5.9-3.5 9.7-9.6 10.8-16.3 1.4-11.9-1.1-22.2-2.2-33.8-.8-5.2-.6-10.7-.5-16 .5-8.6 3.3-17.2 9.5-23.3a43 43 0 0 1 26.3-11.5Z" fill="#3eac2c"/></g><g transform="translate(-161 -83)"></g></g></svg>