<svg xmlns="http://www.w3.org/2000/svg" viewBox="0 0 40 40" fill="none">
  <path d="M20 4C11.16 4 4 10.83 4 19.15C4 22.27 5.04 25.15 6.82 27.5L5 35L12.88 33.26C15.05 34.7 17.43 35.3 20 35.3C28.84 35.3 36 28.47 36 19.15C36 10.83 28.84 4 20 4Z" fill="#25D366"/>
  <path d="M28 24.2C27.6 25.6 25.8 26.8 24.2 27.1C23.1 27.3 21.7 27.4 17.5 25.5C12.3 23.2 9.1 17.8 8.8 17.4C8.6 17.1 7 15 7 12.8C7 10.6 8.2 9.6 8.7 9C9.1 8.5 9.7 8.4 10 8.4C10.3 8.4 10.5 8.4 10.8 8.4C11.1 8.4 11.5 8.3 11.9 9.2C12.3 10.1 13.2 12.3 13.3 12.5C13.4 12.7 13.5 12.9 13.3 13.2C12.5 14.8 11.5 14.7 12 15.5C14 18.8 16.4 20.2 19.3 21.7C19.8 22 20 21.9 20.4 21.5C20.7 21.1 21.5 20.2 21.9 19.7C22.2 19.2 22.6 19.3 23 19.5C23.5 19.7 25.7 20.7 26.2 21C26.7 21.3 27 21.4 27.1 21.6C27.2 21.8 27.2 22.8 28 24.2Z" fill="white"/>
</svg>
